# xmcd
#
# Track frame offsets: 
#        300
#        21522
#        39742
#        57864
#        76247
#        95725
#        116183
#        135108
#        151410
#        168580
#        186614
#        210159
#        279837
#
# Disc length: 3895 seconds
#
# Revision: 0
# Processed by: cddbd v1.5.2PL0 Copyright (c) Steve Scherf et al.
# Submitted via: ExactAudioCopy v0.95b4
#
DISCID=b20f330d
DTITLE=Joss Stone - Mind Body and Soul
DYEAR=1900
DGENRE=Blues
TTITLE0=Right to be Wrong
TTITLE1=Jet Lag
TTITLE2=You Had Me
TTITLE3=Spoiled
TTITLE4=Less is More
TTITLE5=Security
TTITLE6=Young at Heart
TTITLE7=Snakes and Ladders
TTITLE8=Understand
TTITLE9=Torn and Tattered
TTITLE10=Killing Time
TTITLE11=Sleep Like a Child
TTITLE12=Holding ou for a Hero
EXTD=
EXTT0=
EXTT1=
EXTT2=
EXTT3=
EXTT4=
EXTT5=
EXTT6=
EXTT7=
EXTT8=
EXTT9=
EXTT10=
EXTT11=
EXTT12=
PLAYORDER=
